<svg width="150" height="150" viewBox="-75 -75 150 150"><path d="M0,-67A67,67,0,0,1,41.523,-52.582L0,0Z" fill="#FFFFFF" stroke="#959595" stroke-width="1.2"></path><path d="M41.523,-52.582A67,67,0,0,1,58.756,-32.199L0,0Z" fill="#FFFFFF" stroke="#959595" stroke-width="1.2"></path><path d="M58.756,-32.199A67,67,0,0,1,58.756,32.199L0,0Z" fill="#17cfb0" stroke="#959595" stroke-width="1.2"></path><path d="M58.756,32.199A67,67,0,0,1,51.165,43.257L0,0Z" fill="#FFFFFF" stroke="#959595" stroke-width="1.2"></path><path d="M51.165,43.257A67,67,0,0,1,13.345,65.657L0,0Z" fill="#FFFFFF" stroke="#959595" stroke-width="1.2"></path><path d="M13.345,65.657A67,67,0,0,1,-34.144,-57.647L0,0Z" fill="#FFFFFF" stroke="#959595" stroke-width="1.2"></path><path d="M-34.144,-57.647A67,67,0,0,1,0,-67L0,0Z" fill="#FFFFFF" stroke="#959595" stroke-width="1.2"></path><line x1="59" y1="0" x2="75" y2="0" stroke="#959595" stroke-width="1.2"></line><line x1="3.6127080574846916e-15" y1="59" x2="4.592425496802574e-15" y2="75" stroke="#959595" stroke-width="1.2"></line><line x1="-59" y1="7.225416114969383e-15" x2="-75" y2="9.184850993605149e-15" stroke="#959595" stroke-width="1.2"></line><line x1="-1.0838124172454075e-14" y1="-59" x2="-1.3777276490407723e-14" y2="-75" stroke="#959595" stroke-width="1.2"></line></svg>