<svg width="150" height="150" viewBox="-75 -75 150 150"><path d="M0,-67A67,67,0,0,1,16.662,-64.895L0,0Z" fill="#FFFFFF" stroke="#959595" stroke-width="1.2"></path><path d="M16.662,-64.895A67,67,0,0,1,56.57,-35.9L0,0Z" fill="#FFFFFF" stroke="#959595" stroke-width="1.2"></path><path d="M56.57,-35.9A67,67,0,0,1,35.9,56.57L0,0Z" fill="#FFFFFF" stroke="#959595" stroke-width="1.2"></path><path d="M35.9,56.57A67,67,0,0,1,-66.868,-4.207L0,0Z" fill="#17cfb0" stroke="#959595" stroke-width="1.2"></path><path d="M-66.868,-4.207A67,67,0,0,1,-62.295,-24.664L0,0Z" fill="#FFFFFF" stroke="#959595" stroke-width="1.2"></path><path d="M-62.295,-24.664A67,67,0,0,1,-24.664,-62.295L0,0Z" fill="#FFFFFF" stroke="#959595" stroke-width="1.2"></path><path d="M-24.664,-62.295A67,67,0,0,1,0,-67L0,0Z" fill="#FFFFFF" stroke="#959595" stroke-width="1.2"></path><line x1="59" y1="0" x2="75" y2="0" stroke="#959595" stroke-width="1.2"></line><line x1="3.6127080574846916e-15" y1="59" x2="4.592425496802574e-15" y2="75" stroke="#959595" stroke-width="1.2"></line><line x1="-59" y1="7.225416114969383e-15" x2="-75" y2="9.184850993605149e-15" stroke="#959595" stroke-width="1.2"></line><line x1="-1.0838124172454075e-14" y1="-59" x2="-1.3777276490407723e-14" y2="-75" stroke="#959595" stroke-width="1.2"></line></svg>